# xmcd
#
# Track frame offsets:
#        150
#        22115
#        42177
#
# Disc length: 877 seconds
#
# Revision: 0
# Processed by: cddbd v1.5PL3 Copyright (c) Steve Scherf et al.
# Submitted via: ExactAudioCopy v0.95a4
#
DISCID=1e036b03
DTITLE=hiro:n - accessory
DYEAR=2001
DGENRE=Pop
TTITLE0=accessory
TTITLE1=Maybe
TTITLE2=accessory -110th street mix-
EXTD=
EXTT0=
EXTT1=
EXTT2=
PLAYORDER=
